<svg id="Capa_1" enable-background="new 0 0 512 512" height="512" viewBox="0 0 512 512" width="512" xmlns="http://www.w3.org/2000/svg"><g><g><g><g><g><g><path d="m163.768 425.121 73.844-73.844c5.705-5.705 5.705-14.954 0-20.658-5.705-5.705-14.954-5.705-20.658 0l18.821-18.821c5.705-5.705 5.705-14.954 0-20.658-5.705-5.705-14.954-5.705-20.658 0l-9.862 9.862c5.704-5.705 5.704-14.953 0-20.658-5.705-5.705-14.954-5.705-20.658 0l-12.195 12.195c5.705-5.705 5.705-14.954 0-20.658-5.705-5.705-14.954-5.705-20.658 0l-80.095 80.095c-8.097 8.097-13.332 18.613-14.913 29.954l-2.268 16.271-46.968 46.967 56.629 56.629 44.141-44.141z" fill="#ffcec0"/><g fill="#fdb0a0"><path d="m237.61 351.28-11 11-67.2-67.2c-5.35-5.36-9.76-11.31-13.23-17.64l5.56-5.56c2.86-2.85 6.6-4.28 10.33-4.28 3.74 0 7.48 1.43 10.33 4.28 5.71 5.71 5.71 14.95 0 20.66l12.2-12.2c2.85-2.85 6.59-4.28 10.32-4.28 3.74 0 7.48 1.43 10.33 4.28 5.71 5.71 5.71 14.96 0 20.66l9.87-9.86c2.85-2.85 6.59-4.28 10.32-4.28 3.74 0 7.48 1.43 10.33 4.28 5.71 5.7 5.71 14.95 0 20.66l-18.82 18.82c2.85-2.86 6.59-4.28 10.33-4.28s7.48 1.42 10.33 4.28c5.71 5.7 5.71 14.95 0 20.66z"/><path d="m237.61 351.28-73.84 73.84-55.5 32.54-44.14 44.14-56.63-56.63h.01l41.16 41.16 44.14-44.14 55.49-32.53 73.85-73.85c2.62-2.62 4.04-6 4.24-9.44.3-.02.59-.03.89-.03 3.74 0 7.48 1.42 10.33 4.28 5.71 5.7 5.71 14.95 0 20.66z"/></g></g><g><path d="m227.2 398.74-43.983 47.872c-4.873 5.303-10.986 9.314-17.792 11.67l-20.914 7.243c-6.219 2.154-13.034 1.788-18.988-1.018l-19.735-9.304-20.58-20.58 24.688-24.688c14.26-14.26 37.379-14.26 51.639 0l4.273 4.273 26.509-26.509c9.54-9.54 25.007-9.54 34.547 0 3.014 3.013 3.161 7.851.336 11.041z" fill="#ffcec0"/><path d="m229.23 393.4c0 1.9-.67 3.81-2.03 5.34l-43.98 47.87c-4.88 5.31-10.99 9.32-17.79 11.67l-20.92 7.25c-6.22 2.15-13.03 1.78-18.99-1.02l-19.73-9.31-14.57-14.57 19.73 9.31c5.96 2.8 12.77 3.17 18.99 1.01l20.92-7.24c6.8-2.35 12.91-6.36 17.79-11.67l43.98-47.87c.83-.94 1.4-2.02 1.72-3.16 4.59.9 8.97 3.14 12.52 6.69 1.57 1.57 2.36 3.63 2.36 5.7z" fill="#fdb0a0"/></g></g></g><g><g><g><path d="m348.233 86.879-73.844 73.844c-5.705 5.705-5.705 14.954 0 20.658 5.705 5.705 14.954 5.705 20.658 0l-18.821 18.821c-5.705 5.705-5.705 14.954 0 20.658 5.705 5.705 14.954 5.705 20.658 0l9.862-9.862c-5.704 5.705-5.704 14.953 0 20.658 5.705 5.705 14.954 5.705 20.658 0l12.195-12.195c-5.705 5.705-5.705 14.954 0 20.658 5.705 5.705 14.954 5.705 20.658 0l80.095-80.095c8.097-8.097 13.332-18.613 14.913-29.954l2.268-16.271 46.967-46.967-56.629-56.629-44.141 44.141z" fill="#d5887a"/><path d="m504.5 66.83-46.97 46.97-2.26 16.27c-1.58 11.34-6.82 21.86-14.92 29.95l-80.09 80.1c-2.86 2.85-6.6 4.28-10.33 4.28-3.74 0-7.48-1.43-10.33-4.28-3.17-3.17-4.58-7.44-4.22-11.58 3.3-.28 6.54-1.69 9.08-4.22l80.09-80.1c8.1-8.09 13.33-18.61 14.92-29.95l2.26-16.27 46.97-46.97z" fill="#c86f5c"/></g><path d="m284.8 113.26 43.983-47.872c4.873-5.303 10.986-9.314 17.792-11.67l20.914-7.243c6.219-2.154 13.034-1.788 18.988 1.018l19.735 9.304 20.58 20.58-24.688 24.688c-14.26 14.26-37.379 14.26-51.639 0l-4.273-4.273-26.509 26.509c-9.54 9.54-25.007 9.54-34.547 0-3.014-3.013-3.161-7.851-.336-11.041z" fill="#d5887a"/></g></g></g><g><g><g><g><path d="m86.879 163.768 73.844 73.844c5.705 5.705 14.954 5.705 20.658 0 5.705-5.705 5.705-14.954 0-20.658l18.821 18.821c5.705 5.705 14.954 5.705 20.658 0 5.705-5.705 5.705-14.954 0-20.658l-9.862-9.862c5.705 5.704 14.953 5.704 20.658 0 5.705-5.705 5.705-14.954 0-20.658l-12.195-12.197c5.705 5.705 14.954 5.705 20.658 0 5.705-5.705 5.705-14.954 0-20.658l-80.095-80.095c-8.097-8.097-18.613-13.332-29.954-14.913l-16.271-2.268-46.967-46.966-56.629 56.629 44.141 44.141z" fill="#a34f41"/><path d="m244.4 162.07c0 3.74-1.43 7.48-4.28 10.33-3.82 3.82-9.23 5.09-14.1 3.78-.63-2.4-1.9-4.67-3.78-6.56l-80.1-80.09c-8.09-8.1-18.61-13.34-29.95-14.92l-16.27-2.26-46.97-46.97 17.88-17.88 46.97 46.97 16.27 2.26c11.34 1.58 21.86 6.82 29.95 14.92l80.1 80.09c2.85 2.86 4.28 6.6 4.28 10.33z" fill="#873f30"/></g><path d="m113.26 227.2-47.872-43.983c-5.303-4.873-9.314-10.986-11.67-17.792l-7.243-20.914c-2.154-6.219-1.788-13.034 1.018-18.988l9.304-19.735 20.58-20.58 24.688 24.688c14.26 14.26 14.26 37.379 0 51.639l-4.273 4.273 26.509 26.509c9.54 9.54 9.54 25.007 0 34.547-3.013 3.014-7.851 3.161-11.041.336z" fill="#a34f41"/></g></g><g><g><g><path d="m425.121 348.232-73.844-73.844c-5.705-5.705-14.954-5.705-20.658 0-5.705 5.705-5.705 14.954 0 20.658l-18.821-18.821c-5.705-5.705-14.954-5.705-20.658 0-5.705 5.705-5.705 14.954 0 20.658l9.862 9.862c-5.705-5.704-14.953-5.704-20.658 0-5.705 5.705-5.705 14.954 0 20.658l12.195 12.195c-5.705-5.705-14.954-5.705-20.658 0-5.705 5.705-5.705 14.954 0 20.658l80.095 80.095c8.097 8.097 18.613 13.332 29.954 14.913l16.271 2.268 46.966 46.966 56.629-56.629-44.141-44.141z" fill="#ffdfd0"/><g fill="#ffcec0"><path d="m361.42 284.53c-2.58 3.7-5.52 7.23-8.81 10.53l-72.97 72.96-7.76-7.76c-2.85-2.86-4.28-6.6-4.28-10.33 0-3.74 1.43-7.48 4.28-10.33 5.71-5.71 14.95-5.71 20.66 0l-12.2-12.2c-2.85-2.85-4.28-6.59-4.28-10.32 0-3.74 1.43-7.48 4.28-10.33 5.71-5.71 14.96-5.71 20.66 0l-9.86-9.87c-2.85-2.85-4.28-6.59-4.28-10.32 0-3.74 1.43-7.48 4.28-10.33 5.7-5.71 14.95-5.71 20.66 0l18.82 18.82c-2.86-2.85-4.28-6.59-4.28-10.33s1.42-7.48 4.28-10.33c5.7-5.71 14.95-5.71 20.66 0z"/><path d="m445.17 504.5 41.16-41.17-44.14-44.14-32.53-55.49-73.85-73.85c-2.62-2.62-6-4.04-9.44-4.24-.02-.3-.03-.59-.03-.89 0-3.74 1.42-7.48 4.28-10.33 5.7-5.71 14.95-5.71 20.66 0l73.84 73.84 32.54 55.5 44.14 44.14z"/></g></g><g><path d="m398.74 284.8 47.872 43.983c5.303 4.873 9.314 10.986 11.67 17.792l7.243 20.914c2.154 6.219 1.788 13.034-1.018 18.988l-9.304 19.735-20.58 20.58-24.688-24.688c-14.26-14.26-14.26-37.379 0-51.639l4.273-4.273-26.509-26.509c-9.54-9.54-9.54-25.007 0-34.547 3.013-3.014 7.851-3.161 11.041-.336z" fill="#ffdfd0"/><path d="m464.51 386.48-9.31 19.73-15.46 15.46 9.3-19.73c2.81-5.95 3.18-12.77 1.02-18.99l-7.24-20.91c-2.36-6.81-6.37-12.92-11.67-17.79l-47.87-43.99c-.75-.66-1.59-1.16-2.47-1.49.75-4.99 3.05-9.8 6.89-13.64 1.57-1.57 3.63-2.36 5.7-2.36 1.9 0 3.81.67 5.34 2.03l47.87 43.98c5.31 4.88 9.32 10.99 11.67 17.79l7.25 20.92c2.15 6.22 1.78 13.03-1.02 18.99z" fill="#ffcec0"/></g></g></g></g></g><g><path d="m338.445 280.934c22.715-22.772 22.699-59.645-.051-82.395-22.75-22.751-59.625-22.766-82.396-.05-22.772-22.716-59.646-22.7-82.397.05-22.75 22.75-22.766 59.623-.051 82.395l74.536 74.539c4.369 4.37 11.454 4.37 15.823 0z" fill="#fc78a8"/><path d="m338.45 280.93-74.54 74.54c-4.37 4.37-11.45 4.37-15.82 0l-9.16-9.16 72.74-72.75c22.72-22.77 22.7-59.65-.05-82.4-3.89-3.89-8.19-7.11-12.76-9.67 14.35.41 28.58 6.1 39.53 17.05 22.75 22.75 22.77 59.62.06 82.39z" fill="#fc5a95"/><g><path d="m61.895 399.237 2.268-16.271c1.347-9.664 5.889-18.786 12.788-25.686l32.57-32.57c2.929-2.929 2.929-7.678 0-10.606-2.929-2.929-7.678-2.929-10.606 0l-32.57 32.57c-9.193 9.192-15.244 21.346-17.038 34.222l-1.92 13.781-45.19 45.188c-2.929 2.929-2.929 7.678 0 10.606 1.464 1.464 3.384 2.197 5.303 2.197s3.839-.732 5.303-2.197l46.966-46.966c1.154-1.154 1.901-2.652 2.126-4.268z"/><path d="m205.177 373.105c-6.552.964-13.13 4.258-18.162 9.29l-21.223 21.223c-10.92-10.241-25.999-14.198-40.633-10.598-4.022.991-6.48 5.054-5.49 9.076.991 4.022 5.057 6.478 9.076 5.49 9.965-2.456 20.242.407 27.488 7.653l4.272 4.272c2.929 2.929 7.678 2.929 10.606 0l26.51-26.509c6.601-6.6 17.34-6.6 23.94 0 .202.202.218.523.042.744l-43.909 47.792c-4.019 4.374-9.11 7.713-14.723 9.658l-20.915 7.243c-4.393 1.521-9.129 1.268-13.335-.715l-18.553-8.748-19.655-19.656c-2.929-2.929-7.678-2.929-10.606 0-2.929 2.929-2.929 7.677 0 10.606l17.743 17.744-38.824 38.824c-2.929 2.929-2.929 7.678 0 10.606 1.464 1.464 3.384 2.197 5.303 2.197s3.839-.732 5.303-2.197l41.283-41.283 11.611 5.474c4.422 2.085 9.161 3.136 13.921 3.135 3.604 0 7.221-.602 10.719-1.814l20.915-7.243c7.953-2.754 15.166-7.486 20.86-13.683l43.983-47.872c.031-.034.062-.068.092-.103 5.443-6.147 5.159-15.511-.647-21.316-2.641-2.642-5.637-4.717-8.832-6.237l17.415-17.415 2.031 2.032c3.643 3.644 8.429 5.465 13.215 5.465 3.135 0 6.263-.797 9.076-2.36.474.583.971 1.148 1.504 1.681l80.095 80.095c9.192 9.193 21.346 15.244 34.222 17.038l13.781 1.92 45.188 45.188c1.464 1.464 3.384 2.197 5.303 2.197s3.839-.732 5.303-2.197c2.929-2.929 2.929-7.678 0-10.606l-46.966-46.966c-1.154-1.154-2.652-1.9-4.268-2.125l-16.271-2.268c-9.664-1.347-18.786-5.889-25.686-12.788l-80.095-80.095c-.368-.368-.681-.772-.954-1.197l9.93-9.931 46.449 46.449c1.464 1.464 3.384 2.197 5.303 2.197s3.839-.732 5.303-2.197c2.929-2.929 2.929-7.678 0-10.606l-46.449-46.449 10.052-10.052 47.873 47.873c1.464 1.464 3.384 2.197 5.303 2.197s3.839-.732 5.303-2.197c2.929-2.929 2.929-7.678 0-10.606l-47.873-47.873 10.052-10.052 47.437 47.437c1.464 1.464 3.384 2.197 5.303 2.197s3.839-.732 5.303-2.197c2.929-2.929 2.929-7.678 0-10.606l-47.437-47.437 5.666-5.667c.002-.002.004-.004.007-.006 1.475-1.479 2.856-3.017 4.161-4.597l25.494 25.494c.969 6.539 3.963 12.834 8.986 17.857l21.223 21.223c-10.241 10.921-14.202 26-10.598 40.634.842 3.42 3.905 5.708 7.276 5.708.594 0 1.197-.071 1.799-.22 4.022-.99 6.479-5.054 5.489-9.076-2.454-9.965.407-20.241 7.654-27.488l4.272-4.272c2.929-2.929 2.929-7.678 0-10.606l-26.509-26.51c-6.6-6.6-6.6-17.34 0-23.94.203-.203.524-.217.745-.042l13.08 12.017c3.049 2.802 7.794 2.601 10.597-.449 2.802-3.05 2.602-7.795-.449-10.597l-13.16-12.091c-.034-.031-.068-.062-.103-.092-6.147-5.442-15.51-5.158-21.316.647-2.641 2.642-4.716 5.637-6.237 8.832l-19.578-19.578c-.116-.116-.241-.223-.36-.336 3.222-6.581 5.281-13.587 6.177-20.718 1.128-.773 2.197-1.641 3.164-2.609l80.095-80.095c9.193-9.192 15.244-21.346 17.038-34.222l1.92-13.781 45.188-45.188c2.929-2.929 2.929-7.678 0-10.606-2.929-2.929-7.678-2.929-10.606 0l-46.966 46.966c-1.154 1.154-1.9 2.652-2.125 4.268l-2.268 16.271c-1.347 9.664-5.889 18.786-12.788 25.686l-73.198 73.198c-.952-5.248-2.541-10.4-4.771-15.333l33.195-33.195c2.929-2.929 2.929-7.678 0-10.606-2.929-2.929-7.678-2.929-10.606 0l-30.582 30.582c-1.655-2.124-3.439-4.179-5.391-6.131-1.447-1.447-2.947-2.808-4.491-4.091l31.835-31.835c2.929-2.929 2.929-7.678 0-10.606-2.929-2.929-7.678-2.929-10.606 0l-34.085 34.085c-4.773-2.355-9.776-4.087-14.888-5.215l38.485-38.485c2.929-2.929 2.929-7.678 0-10.606-2.929-2.929-7.678-2.929-10.606 0 0 0-47.633 47.652-47.726 47.756-3.939.331-7.854 1.015-11.692 2.05-.076-.07-.157-.136-.23-.209-2.771-2.771-2.771-7.28 0-10.052l27.436-27.436c6.54-.969 12.834-3.962 17.857-8.986l21.223-21.223c10.921 10.241 26 14.201 40.633 10.598 4.022-.991 6.48-5.054 5.49-9.076s-5.055-6.477-9.076-5.49c-9.968 2.455-20.242-.408-27.488-7.653l-4.272-4.272c-2.929-2.93-7.678-2.929-10.606 0l-26.51 26.509c-6.601 6.6-17.34 6.6-23.94 0-.202-.202-.218-.523-.042-.744l43.909-47.792c4.019-4.374 9.11-7.713 14.723-9.658l20.915-7.243c4.394-1.521 9.13-1.268 13.335.715l18.553 8.748 19.656 19.656c2.929 2.93 7.678 2.929 10.606 0 2.929-2.929 2.929-7.677 0-10.606l-17.745-17.745 38.824-38.824c2.929-2.929 2.929-7.678 0-10.606-2.928-2.93-7.677-2.929-10.606 0l-41.283 41.283-11.61-5.474c-7.771-3.664-16.522-4.134-24.64-1.321l-20.915 7.242c-7.953 2.754-15.166 7.486-20.86 13.683l-43.983 47.872c-.031.034-.062.068-.092.103-5.443 6.147-5.159 15.511.647 21.316 2.642 2.642 5.637 4.716 8.832 6.237l-19.578 19.578c-7.21 7.21-8.365 18.191-3.514 26.638-3.329 1.82-6.538 3.937-9.574 6.375-4.195-3.369-8.714-6.137-13.438-8.326 1.003-.711 1.965-1.505 2.862-2.403 8.62-8.62 8.62-22.645 0-31.265l-16.183-16.183c-2.929-2.929-7.678-2.929-10.606 0-2.929 2.929-2.929 7.678 0 10.606l16.183 16.183c2.771 2.771 2.771 7.28 0 10.052-1.342 1.342-3.127 2.082-5.026 2.082s-3.684-.739-5.026-2.082c-.234-.234-45.374-45.374-45.374-45.374-2.929-2.929-7.678-2.929-10.606 0-2.929 2.929-2.929 7.678 0 10.606l41.819 41.819c-5.697.363-11.354 1.453-16.818 3.286l-36.476-36.476c-2.929-2.929-7.678-2.929-10.606 0-2.929 2.929-2.929 7.678 0 10.606l32.736 32.736c-3.95 2.52-7.695 5.488-11.141 8.934-.005.005-31.211-31.183-31.211-31.183-2.929-2.929-7.678-2.929-10.606 0-2.929 2.929-2.929 7.678 0 10.606l32.435 32.435c-2.694 4.346-4.838 8.937-6.425 13.679 0 0-13.6-13.553-13.878-13.762-.947-6.59-3.95-12.938-9.009-17.996l-21.223-21.223c10.241-10.92 14.201-25.999 10.598-40.633-.991-4.022-5.057-6.478-9.076-5.49-4.022.991-6.48 5.054-5.49 9.076 2.454 9.966-.407 20.242-7.653 27.488l-4.272 4.272c-2.929 2.929-2.929 7.678 0 10.606l26.509 26.51c6.6 6.6 6.6 17.34 0 23.94-.203.201-.523.218-.744.042l-47.792-43.909c-4.374-4.019-7.713-9.11-9.658-14.723l-7.243-20.915c-1.521-4.394-1.268-9.129.715-13.335l8.748-18.553 19.657-19.652c2.929-2.929 2.929-7.678 0-10.606-2.929-2.929-7.678-2.929-10.606 0l-17.744 17.743-38.824-38.824c-2.929-2.93-7.678-2.929-10.606 0-2.929 2.929-2.929 7.678 0 10.606l41.283 41.283-5.474 11.61c-3.664 7.771-4.133 16.521-1.321 24.64l7.243 20.915c2.754 7.953 7.486 15.166 13.683 20.86 0 0 47.94 44.045 47.975 44.075 2.947 2.609 6.632 3.902 10.31 3.902 3.996 0 7.983-1.526 11.006-4.549 2.641-2.642 4.716-5.637 6.237-8.832l13.299 13.299c-.405 8.595.872 17.253 3.81 25.443-2.397 1.085-4.598 2.587-6.511 4.5l-22.497 22.497c-2.929 2.929-2.929 7.678 0 10.606 1.464 1.464 3.384 2.197 5.303 2.197s3.839-.732 5.303-2.197l22.497-22.497c.84-.84 1.741-1.34 2.566-1.642 2.434 3.757 5.284 7.32 8.562 10.617l-46.45 46.45c-2.929 2.929-2.929 7.678 0 10.606 1.464 1.464 3.384 2.197 5.303 2.197s3.839-.732 5.303-2.197l46.448-46.448 10.052 10.052-47.871 47.871c-2.929 2.929-2.929 7.678 0 10.606 1.464 1.464 3.384 2.197 5.303 2.197s3.839-.732 5.303-2.197l47.871-47.871 10.052 10.052-47.434 47.434c-2.929 2.929-2.929 7.678 0 10.606 1.464 1.464 3.384 2.197 5.303 2.197s3.839-.732 5.303-2.197l47.434-47.434 10.052 10.052zm48.212-22.936-74.529-74.532c-19.757-19.806-19.737-52.013.044-71.795 9.899-9.899 22.909-14.85 35.92-14.85 12.989 0 25.981 4.935 35.876 14.806 2.928 2.921 7.666 2.921 10.594 0 19.807-19.758 52.014-19.738 71.796.044 19.779 19.779 19.801 51.981.051 71.789l-74.536 74.539c-1.436 1.437-3.776 1.437-5.216-.001z"/><path d="m108.495 59.77c1.154 1.154 2.652 1.9 4.268 2.125l16.271 2.268c9.664 1.347 18.786 5.889 25.686 12.788l38.884 38.884c1.464 1.464 3.384 2.197 5.303 2.197s3.839-.732 5.303-2.197c2.929-2.929 2.929-7.678 0-10.606l-38.884-38.884c-9.192-9.193-21.346-15.244-34.222-17.038l-13.781-1.92-45.188-45.19c-2.929-2.929-7.678-2.929-10.606 0-2.929 2.929-2.929 7.678 0 10.606z"/><path d="m465.817 401.285 5.474-11.61c3.664-7.771 4.133-16.521 1.321-24.64l-7.243-20.915c-2.754-7.953-7.486-15.166-13.683-20.86l-8.648-7.946c-3.05-2.803-7.795-2.602-10.597.449-2.802 3.05-2.602 7.795.449 10.597l8.648 7.946c4.374 4.019 7.713 9.11 9.658 14.723l7.243 20.915c1.521 4.394 1.268 9.129-.715 13.335l-8.748 18.553-19.656 19.656c-2.929 2.929-2.929 7.677 0 10.606 1.464 1.465 3.384 2.197 5.303 2.197s3.839-.732 5.303-2.197l17.744-17.743 38.824 38.824c1.464 1.465 3.384 2.197 5.303 2.197s3.839-.732 5.303-2.197c2.929-2.929 2.929-7.678 0-10.606z"/></g></g></g></svg>