<svg width="589" height="285" viewBox="0 0 589 285" fill="none" xmlns="http://www.w3.org/2000/svg">
<rect x="0.5" y="66.5" width="148" height="218" rx="3.5" fill="#5DBDE6" stroke="black"/>
<rect x="215.5" y="66.5" width="148" height="92" rx="3.5" fill="#5DBDE6" stroke="black"/>
<rect x="440.5" y="0.5" width="148" height="92" rx="3.5" fill="#5DBDE6" stroke="black"/>
<rect x="215.5" y="192.5" width="148" height="92" rx="3.5" fill="#5DBDE6" stroke="black"/>
<path d="M35.0469 151.938H37.2969V163.48C37.2969 164.762 37.0117 165.828 36.4414 166.68C35.8711 167.531 35.1133 168.172 34.168 168.602C33.2305 169.023 32.2109 169.234 31.1094 169.234C29.9531 169.234 28.9062 169.023 27.9688 168.602C27.0391 168.172 26.3008 167.531 25.7539 166.68C25.2148 165.828 24.9453 164.762 24.9453 163.48V151.938H27.1836V163.48C27.1836 164.371 27.3477 165.105 27.6758 165.684C28.0039 166.262 28.4609 166.691 29.0469 166.973C29.6406 167.254 30.3281 167.395 31.1094 167.395C31.8984 167.395 32.5859 167.254 33.1719 166.973C33.7656 166.691 34.2266 166.262 34.5547 165.684C34.8828 165.105 35.0469 164.371 35.0469 163.48V151.938ZM42.6758 158.84V169H40.4961V156.32H42.5586L42.6758 158.84ZM42.2305 162.18L41.2227 162.145C41.2305 161.277 41.3438 160.477 41.5625 159.742C41.7812 159 42.1055 158.355 42.5352 157.809C42.9648 157.262 43.5 156.84 44.1406 156.543C44.7812 156.238 45.5234 156.086 46.3672 156.086C46.9609 156.086 47.5078 156.172 48.0078 156.344C48.5078 156.508 48.9414 156.77 49.3086 157.129C49.6758 157.488 49.9609 157.949 50.1641 158.512C50.3672 159.074 50.4688 159.754 50.4688 160.551V169H48.3008V160.656C48.3008 159.992 48.1875 159.461 47.9609 159.062C47.7422 158.664 47.4297 158.375 47.0234 158.195C46.6172 158.008 46.1406 157.914 45.5938 157.914C44.9531 157.914 44.418 158.027 43.9883 158.254C43.5586 158.48 43.2148 158.793 42.957 159.191C42.6992 159.59 42.5117 160.047 42.3945 160.562C42.2852 161.07 42.2305 161.609 42.2305 162.18ZM50.4453 160.984L48.9922 161.43C49 160.734 49.1133 160.066 49.332 159.426C49.5586 158.785 49.8828 158.215 50.3047 157.715C50.7344 157.215 51.2617 156.82 51.8867 156.531C52.5117 156.234 53.2266 156.086 54.0312 156.086C54.7109 156.086 55.3125 156.176 55.8359 156.355C56.3672 156.535 56.8125 156.812 57.1719 157.188C57.5391 157.555 57.8164 158.027 58.0039 158.605C58.1914 159.184 58.2852 159.871 58.2852 160.668V169H56.1055V160.645C56.1055 159.934 55.9922 159.383 55.7656 158.992C55.5469 158.594 55.2344 158.316 54.8281 158.16C54.4297 157.996 53.9531 157.914 53.3984 157.914C52.9219 157.914 52.5 157.996 52.1328 158.16C51.7656 158.324 51.457 158.551 51.207 158.84C50.957 159.121 50.7656 159.445 50.6328 159.812C50.5078 160.18 50.4453 160.57 50.4453 160.984ZM61.5547 151H63.7344V166.539L63.5469 169H61.5547V151ZM72.3008 162.555V162.801C72.3008 163.723 72.1914 164.578 71.9727 165.367C71.7539 166.148 71.4336 166.828 71.0117 167.406C70.5898 167.984 70.0742 168.434 69.4648 168.754C68.8555 169.074 68.1562 169.234 67.3672 169.234C66.5625 169.234 65.8555 169.098 65.2461 168.824C64.6445 168.543 64.1367 168.141 63.7227 167.617C63.3086 167.094 62.9766 166.461 62.7266 165.719C62.4844 164.977 62.3164 164.141 62.2227 163.211V162.133C62.3164 161.195 62.4844 160.355 62.7266 159.613C62.9766 158.871 63.3086 158.238 63.7227 157.715C64.1367 157.184 64.6445 156.781 65.2461 156.508C65.8477 156.227 66.5469 156.086 67.3438 156.086C68.1406 156.086 68.8477 156.242 69.4648 156.555C70.082 156.859 70.5977 157.297 71.0117 157.867C71.4336 158.438 71.7539 159.121 71.9727 159.918C72.1914 160.707 72.3008 161.586 72.3008 162.555ZM70.1211 162.801V162.555C70.1211 161.922 70.0625 161.328 69.9453 160.773C69.8281 160.211 69.6406 159.719 69.3828 159.297C69.125 158.867 68.7852 158.531 68.3633 158.289C67.9414 158.039 67.4219 157.914 66.8047 157.914C66.2578 157.914 65.7812 158.008 65.375 158.195C64.9766 158.383 64.6367 158.637 64.3555 158.957C64.0742 159.27 63.8438 159.629 63.6641 160.035C63.4922 160.434 63.3633 160.848 63.2773 161.277V164.102C63.4023 164.648 63.6055 165.176 63.8867 165.684C64.1758 166.184 64.5586 166.594 65.0352 166.914C65.5195 167.234 66.1172 167.395 66.8281 167.395C67.4141 167.395 67.9141 167.277 68.3281 167.043C68.75 166.801 69.0898 166.469 69.3477 166.047C69.6133 165.625 69.8086 165.137 69.9336 164.582C70.0586 164.027 70.1211 163.434 70.1211 162.801ZM77.2109 158.312V169H75.043V156.32H77.1523L77.2109 158.312ZM81.1719 156.25L81.1602 158.266C80.9805 158.227 80.8086 158.203 80.6445 158.195C80.4883 158.18 80.3086 158.172 80.1055 158.172C79.6055 158.172 79.1641 158.25 78.7812 158.406C78.3984 158.562 78.0742 158.781 77.8086 159.062C77.543 159.344 77.332 159.68 77.1758 160.07C77.0273 160.453 76.9297 160.875 76.8828 161.336L76.2734 161.688C76.2734 160.922 76.3477 160.203 76.4961 159.531C76.6523 158.859 76.8906 158.266 77.2109 157.75C77.5312 157.227 77.9375 156.82 78.4297 156.531C78.9297 156.234 79.5234 156.086 80.2109 156.086C80.3672 156.086 80.5469 156.105 80.75 156.145C80.9531 156.176 81.0938 156.211 81.1719 156.25ZM88.2031 169.234C87.3203 169.234 86.5195 169.086 85.8008 168.789C85.0898 168.484 84.4766 168.059 83.9609 167.512C83.4531 166.965 83.0625 166.316 82.7891 165.566C82.5156 164.816 82.3789 163.996 82.3789 163.105V162.613C82.3789 161.582 82.5312 160.664 82.8359 159.859C83.1406 159.047 83.5547 158.359 84.0781 157.797C84.6016 157.234 85.1953 156.809 85.8594 156.52C86.5234 156.23 87.2109 156.086 87.9219 156.086C88.8281 156.086 89.6094 156.242 90.2656 156.555C90.9297 156.867 91.4727 157.305 91.8945 157.867C92.3164 158.422 92.6289 159.078 92.832 159.836C93.0352 160.586 93.1367 161.406 93.1367 162.297V163.27H83.668V161.5H90.9688V161.336C90.9375 160.773 90.8203 160.227 90.6172 159.695C90.4219 159.164 90.1094 158.727 89.6797 158.383C89.25 158.039 88.6641 157.867 87.9219 157.867C87.4297 157.867 86.9766 157.973 86.5625 158.184C86.1484 158.387 85.793 158.691 85.4961 159.098C85.1992 159.504 84.9688 160 84.8047 160.586C84.6406 161.172 84.5586 161.848 84.5586 162.613V163.105C84.5586 163.707 84.6406 164.273 84.8047 164.805C84.9766 165.328 85.2227 165.789 85.543 166.188C85.8711 166.586 86.2656 166.898 86.7266 167.125C87.1953 167.352 87.7266 167.465 88.3203 167.465C89.0859 167.465 89.7344 167.309 90.2656 166.996C90.7969 166.684 91.2617 166.266 91.6602 165.742L92.9727 166.785C92.6992 167.199 92.3516 167.594 91.9297 167.969C91.5078 168.344 90.9883 168.648 90.3711 168.883C89.7617 169.117 89.0391 169.234 88.2031 169.234ZM98.0234 151V169H95.8438V151H98.0234ZM103.859 151V169H101.68V151H103.859ZM114.816 166.832V160.305C114.816 159.805 114.715 159.371 114.512 159.004C114.316 158.629 114.02 158.34 113.621 158.137C113.223 157.934 112.73 157.832 112.145 157.832C111.598 157.832 111.117 157.926 110.703 158.113C110.297 158.301 109.977 158.547 109.742 158.852C109.516 159.156 109.402 159.484 109.402 159.836H107.234C107.234 159.383 107.352 158.934 107.586 158.488C107.82 158.043 108.156 157.641 108.594 157.281C109.039 156.914 109.57 156.625 110.188 156.414C110.812 156.195 111.508 156.086 112.273 156.086C113.195 156.086 114.008 156.242 114.711 156.555C115.422 156.867 115.977 157.34 116.375 157.973C116.781 158.598 116.984 159.383 116.984 160.328V166.234C116.984 166.656 117.02 167.105 117.09 167.582C117.168 168.059 117.281 168.469 117.43 168.812V169H115.168C115.059 168.75 114.973 168.418 114.91 168.004C114.848 167.582 114.816 167.191 114.816 166.832ZM115.191 161.312L115.215 162.836H113.023C112.406 162.836 111.855 162.887 111.371 162.988C110.887 163.082 110.48 163.227 110.152 163.422C109.824 163.617 109.574 163.863 109.402 164.16C109.23 164.449 109.145 164.789 109.145 165.18C109.145 165.578 109.234 165.941 109.414 166.27C109.594 166.598 109.863 166.859 110.223 167.055C110.59 167.242 111.039 167.336 111.57 167.336C112.234 167.336 112.82 167.195 113.328 166.914C113.836 166.633 114.238 166.289 114.535 165.883C114.84 165.477 115.004 165.082 115.027 164.699L115.953 165.742C115.898 166.07 115.75 166.434 115.508 166.832C115.266 167.23 114.941 167.613 114.535 167.98C114.137 168.34 113.66 168.641 113.105 168.883C112.559 169.117 111.941 169.234 111.254 169.234C110.395 169.234 109.641 169.066 108.992 168.73C108.352 168.395 107.852 167.945 107.492 167.383C107.141 166.812 106.965 166.176 106.965 165.473C106.965 164.793 107.098 164.195 107.363 163.68C107.629 163.156 108.012 162.723 108.512 162.379C109.012 162.027 109.613 161.762 110.316 161.582C111.02 161.402 111.805 161.312 112.672 161.312H115.191ZM62.6094 197H60.4414V183.219C60.4414 182.258 60.6289 181.445 61.0039 180.781C61.3789 180.117 61.9141 179.613 62.6094 179.27C63.3047 178.926 64.1289 178.754 65.082 178.754C65.6445 178.754 66.1953 178.824 66.7344 178.965C67.2734 179.098 67.8281 179.266 68.3984 179.469L68.0352 181.297C67.6758 181.156 67.2578 181.023 66.7812 180.898C66.3125 180.766 65.7969 180.699 65.2344 180.699C64.3047 180.699 63.6328 180.91 63.2188 181.332C62.8125 181.746 62.6094 182.375 62.6094 183.219V197ZM65.1992 184.32V185.984H58.4375V184.32H65.1992ZM69.4648 184.32V197H67.2969V184.32H69.4648ZM75.3828 179V197H73.2031V179H75.3828ZM84.125 197.234C83.2422 197.234 82.4414 197.086 81.7227 196.789C81.0117 196.484 80.3984 196.059 79.8828 195.512C79.375 194.965 78.9844 194.316 78.7109 193.566C78.4375 192.816 78.3008 191.996 78.3008 191.105V190.613C78.3008 189.582 78.4531 188.664 78.7578 187.859C79.0625 187.047 79.4766 186.359 80 185.797C80.5234 185.234 81.1172 184.809 81.7812 184.52C82.4453 184.23 83.1328 184.086 83.8438 184.086C84.75 184.086 85.5312 184.242 86.1875 184.555C86.8516 184.867 87.3945 185.305 87.8164 185.867C88.2383 186.422 88.5508 187.078 88.7539 187.836C88.957 188.586 89.0586 189.406 89.0586 190.297V191.27H79.5898V189.5H86.8906V189.336C86.8594 188.773 86.7422 188.227 86.5391 187.695C86.3438 187.164 86.0312 186.727 85.6016 186.383C85.1719 186.039 84.5859 185.867 83.8438 185.867C83.3516 185.867 82.8984 185.973 82.4844 186.184C82.0703 186.387 81.7148 186.691 81.418 187.098C81.1211 187.504 80.8906 188 80.7266 188.586C80.5625 189.172 80.4805 189.848 80.4805 190.613V191.105C80.4805 191.707 80.5625 192.273 80.7266 192.805C80.8984 193.328 81.1445 193.789 81.4648 194.188C81.793 194.586 82.1875 194.898 82.6484 195.125C83.1172 195.352 83.6484 195.465 84.2422 195.465C85.0078 195.465 85.6562 195.309 86.1875 194.996C86.7188 194.684 87.1836 194.266 87.582 193.742L88.8945 194.785C88.6211 195.199 88.2734 195.594 87.8516 195.969C87.4297 196.344 86.9102 196.648 86.293 196.883C85.6836 197.117 84.9609 197.234 84.125 197.234Z" fill="black"/>
<path d="M243.305 102.203V115H241.608V102.203H243.305ZM247.77 107.521V115H246.144V105.49H247.682L247.77 107.521ZM247.383 109.885L246.706 109.858C246.712 109.208 246.809 108.607 246.996 108.057C247.184 107.5 247.447 107.017 247.787 106.606C248.127 106.196 248.531 105.88 249 105.657C249.475 105.429 249.999 105.314 250.573 105.314C251.042 105.314 251.464 105.379 251.839 105.508C252.214 105.631 252.533 105.83 252.797 106.105C253.066 106.381 253.271 106.738 253.412 107.178C253.553 107.611 253.623 108.142 253.623 108.769V115H251.988V108.751C251.988 108.253 251.915 107.854 251.769 107.556C251.622 107.251 251.408 107.031 251.127 106.896C250.846 106.756 250.5 106.686 250.09 106.686C249.686 106.686 249.316 106.771 248.982 106.94C248.654 107.11 248.37 107.345 248.13 107.644C247.896 107.942 247.711 108.285 247.576 108.672C247.447 109.053 247.383 109.457 247.383 109.885ZM259.898 113.84C260.285 113.84 260.643 113.761 260.971 113.603C261.299 113.444 261.568 113.228 261.779 112.952C261.99 112.671 262.11 112.352 262.14 111.994H263.687C263.657 112.557 263.467 113.081 263.115 113.567C262.77 114.048 262.315 114.438 261.753 114.736C261.19 115.029 260.572 115.176 259.898 115.176C259.184 115.176 258.56 115.05 258.026 114.798C257.499 114.546 257.06 114.2 256.708 113.761C256.362 113.321 256.102 112.817 255.926 112.249C255.756 111.675 255.671 111.068 255.671 110.43V110.061C255.671 109.422 255.756 108.818 255.926 108.25C256.102 107.676 256.362 107.169 256.708 106.729C257.06 106.29 257.499 105.944 258.026 105.692C258.56 105.44 259.184 105.314 259.898 105.314C260.643 105.314 261.293 105.467 261.85 105.771C262.406 106.07 262.843 106.48 263.159 107.002C263.481 107.518 263.657 108.104 263.687 108.76H262.14C262.11 108.367 261.999 108.013 261.806 107.696C261.618 107.38 261.36 107.128 261.032 106.94C260.71 106.747 260.332 106.65 259.898 106.65C259.4 106.65 258.981 106.75 258.642 106.949C258.308 107.143 258.041 107.406 257.842 107.74C257.648 108.068 257.508 108.435 257.42 108.839C257.338 109.237 257.297 109.645 257.297 110.061V110.43C257.297 110.846 257.338 111.256 257.42 111.66C257.502 112.064 257.64 112.431 257.833 112.759C258.032 113.087 258.299 113.351 258.633 113.55C258.973 113.743 259.395 113.84 259.898 113.84ZM267.281 101.5V115H265.646V101.5H267.281ZM275.71 112.803V105.49H277.345V115H275.789L275.71 112.803ZM276.018 110.799L276.694 110.781C276.694 111.414 276.627 112 276.492 112.539C276.363 113.072 276.152 113.535 275.859 113.928C275.566 114.32 275.183 114.628 274.708 114.851C274.233 115.067 273.656 115.176 272.977 115.176C272.514 115.176 272.089 115.108 271.702 114.974C271.321 114.839 270.993 114.631 270.718 114.35C270.442 114.068 270.229 113.702 270.076 113.251C269.93 112.8 269.856 112.258 269.856 111.625V105.49H271.482V111.643C271.482 112.07 271.529 112.425 271.623 112.706C271.723 112.981 271.854 113.201 272.019 113.365C272.188 113.523 272.376 113.635 272.581 113.699C272.792 113.764 273.009 113.796 273.231 113.796C273.923 113.796 274.471 113.664 274.875 113.4C275.279 113.131 275.569 112.771 275.745 112.319C275.927 111.862 276.018 111.355 276.018 110.799ZM285.817 113.154V101.5H287.452V115H285.958L285.817 113.154ZM279.419 110.351V110.166C279.419 109.439 279.507 108.78 279.683 108.188C279.864 107.591 280.119 107.078 280.447 106.65C280.781 106.223 281.177 105.895 281.634 105.666C282.097 105.432 282.612 105.314 283.181 105.314C283.778 105.314 284.3 105.42 284.745 105.631C285.196 105.836 285.577 106.138 285.888 106.536C286.204 106.929 286.453 107.403 286.635 107.96C286.816 108.517 286.942 109.146 287.013 109.85V110.658C286.948 111.355 286.822 111.982 286.635 112.539C286.453 113.096 286.204 113.57 285.888 113.963C285.577 114.355 285.196 114.657 284.745 114.868C284.294 115.073 283.767 115.176 283.163 115.176C282.606 115.176 282.097 115.056 281.634 114.815C281.177 114.575 280.781 114.238 280.447 113.805C280.119 113.371 279.864 112.861 279.683 112.275C279.507 111.684 279.419 111.042 279.419 110.351ZM281.054 110.166V110.351C281.054 110.825 281.101 111.271 281.194 111.687C281.294 112.103 281.446 112.469 281.651 112.785C281.856 113.102 282.117 113.351 282.434 113.532C282.75 113.708 283.128 113.796 283.567 113.796C284.106 113.796 284.549 113.682 284.895 113.453C285.246 113.225 285.527 112.923 285.738 112.548C285.949 112.173 286.113 111.766 286.23 111.326V109.208C286.16 108.886 286.058 108.575 285.923 108.276C285.794 107.972 285.624 107.702 285.413 107.468C285.208 107.228 284.953 107.037 284.648 106.896C284.35 106.756 283.995 106.686 283.585 106.686C283.14 106.686 282.756 106.779 282.434 106.967C282.117 107.148 281.856 107.4 281.651 107.723C281.446 108.039 281.294 108.408 281.194 108.83C281.101 109.246 281.054 109.691 281.054 110.166ZM293.93 115.176C293.268 115.176 292.667 115.064 292.128 114.842C291.595 114.613 291.135 114.294 290.748 113.884C290.367 113.474 290.074 112.987 289.869 112.425C289.664 111.862 289.562 111.247 289.562 110.579V110.21C289.562 109.437 289.676 108.748 289.904 108.145C290.133 107.535 290.443 107.02 290.836 106.598C291.229 106.176 291.674 105.856 292.172 105.64C292.67 105.423 293.186 105.314 293.719 105.314C294.398 105.314 294.984 105.432 295.477 105.666C295.975 105.9 296.382 106.229 296.698 106.65C297.015 107.066 297.249 107.559 297.401 108.127C297.554 108.689 297.63 109.305 297.63 109.973V110.702H290.528V109.375H296.004V109.252C295.98 108.83 295.893 108.42 295.74 108.021C295.594 107.623 295.359 107.295 295.037 107.037C294.715 106.779 294.275 106.65 293.719 106.65C293.35 106.65 293.01 106.729 292.699 106.888C292.389 107.04 292.122 107.269 291.899 107.573C291.677 107.878 291.504 108.25 291.381 108.689C291.258 109.129 291.196 109.636 291.196 110.21V110.579C291.196 111.03 291.258 111.455 291.381 111.854C291.51 112.246 291.694 112.592 291.935 112.891C292.181 113.189 292.477 113.424 292.822 113.594C293.174 113.764 293.572 113.849 294.018 113.849C294.592 113.849 295.078 113.731 295.477 113.497C295.875 113.263 296.224 112.949 296.522 112.557L297.507 113.339C297.302 113.649 297.041 113.945 296.725 114.227C296.408 114.508 296.019 114.736 295.556 114.912C295.099 115.088 294.557 115.176 293.93 115.176ZM305.522 113.154V101.5H307.157V115H305.663L305.522 113.154ZM299.124 110.351V110.166C299.124 109.439 299.212 108.78 299.388 108.188C299.569 107.591 299.824 107.078 300.152 106.65C300.486 106.223 300.882 105.895 301.339 105.666C301.802 105.432 302.317 105.314 302.886 105.314C303.483 105.314 304.005 105.42 304.45 105.631C304.901 105.836 305.282 106.138 305.593 106.536C305.909 106.929 306.158 107.403 306.34 107.96C306.521 108.517 306.647 109.146 306.718 109.85V110.658C306.653 111.355 306.527 111.982 306.34 112.539C306.158 113.096 305.909 113.57 305.593 113.963C305.282 114.355 304.901 114.657 304.45 114.868C303.999 115.073 303.472 115.176 302.868 115.176C302.312 115.176 301.802 115.056 301.339 114.815C300.882 114.575 300.486 114.238 300.152 113.805C299.824 113.371 299.569 112.861 299.388 112.275C299.212 111.684 299.124 111.042 299.124 110.351ZM300.759 110.166V110.351C300.759 110.825 300.806 111.271 300.899 111.687C300.999 112.103 301.151 112.469 301.356 112.785C301.562 113.102 301.822 113.351 302.139 113.532C302.455 113.708 302.833 113.796 303.272 113.796C303.812 113.796 304.254 113.682 304.6 113.453C304.951 113.225 305.232 112.923 305.443 112.548C305.654 112.173 305.818 111.766 305.936 111.326V109.208C305.865 108.886 305.763 108.575 305.628 108.276C305.499 107.972 305.329 107.702 305.118 107.468C304.913 107.228 304.658 107.037 304.354 106.896C304.055 106.756 303.7 106.686 303.29 106.686C302.845 106.686 302.461 106.779 302.139 106.967C301.822 107.148 301.562 107.4 301.356 107.723C301.151 108.039 300.999 108.408 300.899 108.83C300.806 109.246 300.759 109.691 300.759 110.166ZM316.324 115H314.698V104.664C314.698 103.943 314.839 103.334 315.12 102.836C315.401 102.338 315.803 101.96 316.324 101.702C316.846 101.444 317.464 101.315 318.179 101.315C318.601 101.315 319.014 101.368 319.418 101.474C319.822 101.573 320.238 101.699 320.666 101.852L320.394 103.223C320.124 103.117 319.811 103.018 319.453 102.924C319.102 102.824 318.715 102.774 318.293 102.774C317.596 102.774 317.092 102.933 316.781 103.249C316.477 103.56 316.324 104.031 316.324 104.664V115ZM318.267 105.49V106.738H313.195V105.49H318.267ZM321.466 105.49V115H319.84V105.49H321.466ZM325.904 101.5V115H324.27V101.5H325.904ZM332.461 115.176C331.799 115.176 331.198 115.064 330.659 114.842C330.126 114.613 329.666 114.294 329.279 113.884C328.898 113.474 328.605 112.987 328.4 112.425C328.195 111.862 328.093 111.247 328.093 110.579V110.21C328.093 109.437 328.207 108.748 328.436 108.145C328.664 107.535 328.975 107.02 329.367 106.598C329.76 106.176 330.205 105.856 330.703 105.64C331.201 105.423 331.717 105.314 332.25 105.314C332.93 105.314 333.516 105.432 334.008 105.666C334.506 105.9 334.913 106.229 335.229 106.65C335.546 107.066 335.78 107.559 335.933 108.127C336.085 108.689 336.161 109.305 336.161 109.973V110.702H329.06V109.375H334.535V109.252C334.512 108.83 334.424 108.42 334.271 108.021C334.125 107.623 333.891 107.295 333.568 107.037C333.246 106.779 332.807 106.65 332.25 106.65C331.881 106.65 331.541 106.729 331.23 106.888C330.92 107.04 330.653 107.269 330.431 107.573C330.208 107.878 330.035 108.25 329.912 108.689C329.789 109.129 329.728 109.636 329.728 110.21V110.579C329.728 111.03 329.789 111.455 329.912 111.854C330.041 112.246 330.226 112.592 330.466 112.891C330.712 113.189 331.008 113.424 331.354 113.594C331.705 113.764 332.104 113.849 332.549 113.849C333.123 113.849 333.609 113.731 334.008 113.497C334.406 113.263 334.755 112.949 335.054 112.557L336.038 113.339C335.833 113.649 335.572 113.945 335.256 114.227C334.939 114.508 334.55 114.736 334.087 114.912C333.63 115.088 333.088 115.176 332.461 115.176Z" fill="black"/>
<path d="M233.305 229.203V242H231.608V229.203H233.305ZM237.77 234.521V242H236.144V232.49H237.682L237.77 234.521ZM237.383 236.885L236.706 236.858C236.712 236.208 236.809 235.607 236.996 235.057C237.184 234.5 237.447 234.017 237.787 233.606C238.127 233.196 238.531 232.88 239 232.657C239.475 232.429 239.999 232.314 240.573 232.314C241.042 232.314 241.464 232.379 241.839 232.508C242.214 232.631 242.533 232.83 242.797 233.105C243.066 233.381 243.271 233.738 243.412 234.178C243.553 234.611 243.623 235.142 243.623 235.769V242H241.988V235.751C241.988 235.253 241.915 234.854 241.769 234.556C241.622 234.251 241.408 234.031 241.127 233.896C240.846 233.756 240.5 233.686 240.09 233.686C239.686 233.686 239.316 233.771 238.982 233.94C238.654 234.11 238.37 234.345 238.13 234.644C237.896 234.942 237.711 235.285 237.576 235.672C237.447 236.053 237.383 236.457 237.383 236.885ZM249.898 240.84C250.285 240.84 250.643 240.761 250.971 240.603C251.299 240.444 251.568 240.228 251.779 239.952C251.99 239.671 252.11 239.352 252.14 238.994H253.687C253.657 239.557 253.467 240.081 253.115 240.567C252.77 241.048 252.315 241.438 251.753 241.736C251.19 242.029 250.572 242.176 249.898 242.176C249.184 242.176 248.56 242.05 248.026 241.798C247.499 241.546 247.06 241.2 246.708 240.761C246.362 240.321 246.102 239.817 245.926 239.249C245.756 238.675 245.671 238.068 245.671 237.43V237.061C245.671 236.422 245.756 235.818 245.926 235.25C246.102 234.676 246.362 234.169 246.708 233.729C247.06 233.29 247.499 232.944 248.026 232.692C248.56 232.44 249.184 232.314 249.898 232.314C250.643 232.314 251.293 232.467 251.85 232.771C252.406 233.07 252.843 233.48 253.159 234.002C253.481 234.518 253.657 235.104 253.687 235.76H252.14C252.11 235.367 251.999 235.013 251.806 234.696C251.618 234.38 251.36 234.128 251.032 233.94C250.71 233.747 250.332 233.65 249.898 233.65C249.4 233.65 248.981 233.75 248.642 233.949C248.308 234.143 248.041 234.406 247.842 234.74C247.648 235.068 247.508 235.435 247.42 235.839C247.338 236.237 247.297 236.645 247.297 237.061V237.43C247.297 237.846 247.338 238.256 247.42 238.66C247.502 239.064 247.64 239.431 247.833 239.759C248.032 240.087 248.299 240.351 248.633 240.55C248.973 240.743 249.395 240.84 249.898 240.84ZM257.281 228.5V242H255.646V228.5H257.281ZM265.71 239.803V232.49H267.345V242H265.789L265.71 239.803ZM266.018 237.799L266.694 237.781C266.694 238.414 266.627 239 266.492 239.539C266.363 240.072 266.152 240.535 265.859 240.928C265.566 241.32 265.183 241.628 264.708 241.851C264.233 242.067 263.656 242.176 262.977 242.176C262.514 242.176 262.089 242.108 261.702 241.974C261.321 241.839 260.993 241.631 260.718 241.35C260.442 241.068 260.229 240.702 260.076 240.251C259.93 239.8 259.856 239.258 259.856 238.625V232.49H261.482V238.643C261.482 239.07 261.529 239.425 261.623 239.706C261.723 239.981 261.854 240.201 262.019 240.365C262.188 240.523 262.376 240.635 262.581 240.699C262.792 240.764 263.009 240.796 263.231 240.796C263.923 240.796 264.471 240.664 264.875 240.4C265.279 240.131 265.569 239.771 265.745 239.319C265.927 238.862 266.018 238.355 266.018 237.799ZM275.817 240.154V228.5H277.452V242H275.958L275.817 240.154ZM269.419 237.351V237.166C269.419 236.439 269.507 235.78 269.683 235.188C269.864 234.591 270.119 234.078 270.447 233.65C270.781 233.223 271.177 232.895 271.634 232.666C272.097 232.432 272.612 232.314 273.181 232.314C273.778 232.314 274.3 232.42 274.745 232.631C275.196 232.836 275.577 233.138 275.888 233.536C276.204 233.929 276.453 234.403 276.635 234.96C276.816 235.517 276.942 236.146 277.013 236.85V237.658C276.948 238.355 276.822 238.982 276.635 239.539C276.453 240.096 276.204 240.57 275.888 240.963C275.577 241.355 275.196 241.657 274.745 241.868C274.294 242.073 273.767 242.176 273.163 242.176C272.606 242.176 272.097 242.056 271.634 241.815C271.177 241.575 270.781 241.238 270.447 240.805C270.119 240.371 269.864 239.861 269.683 239.275C269.507 238.684 269.419 238.042 269.419 237.351ZM271.054 237.166V237.351C271.054 237.825 271.101 238.271 271.194 238.687C271.294 239.103 271.446 239.469 271.651 239.785C271.856 240.102 272.117 240.351 272.434 240.532C272.75 240.708 273.128 240.796 273.567 240.796C274.106 240.796 274.549 240.682 274.895 240.453C275.246 240.225 275.527 239.923 275.738 239.548C275.949 239.173 276.113 238.766 276.23 238.326V236.208C276.16 235.886 276.058 235.575 275.923 235.276C275.794 234.972 275.624 234.702 275.413 234.468C275.208 234.228 274.953 234.037 274.648 233.896C274.35 233.756 273.995 233.686 273.585 233.686C273.14 233.686 272.756 233.779 272.434 233.967C272.117 234.148 271.856 234.4 271.651 234.723C271.446 235.039 271.294 235.408 271.194 235.83C271.101 236.246 271.054 236.691 271.054 237.166ZM283.93 242.176C283.268 242.176 282.667 242.064 282.128 241.842C281.595 241.613 281.135 241.294 280.748 240.884C280.367 240.474 280.074 239.987 279.869 239.425C279.664 238.862 279.562 238.247 279.562 237.579V237.21C279.562 236.437 279.676 235.748 279.904 235.145C280.133 234.535 280.443 234.02 280.836 233.598C281.229 233.176 281.674 232.856 282.172 232.64C282.67 232.423 283.186 232.314 283.719 232.314C284.398 232.314 284.984 232.432 285.477 232.666C285.975 232.9 286.382 233.229 286.698 233.65C287.015 234.066 287.249 234.559 287.401 235.127C287.554 235.689 287.63 236.305 287.63 236.973V237.702H280.528V236.375H286.004V236.252C285.98 235.83 285.893 235.42 285.74 235.021C285.594 234.623 285.359 234.295 285.037 234.037C284.715 233.779 284.275 233.65 283.719 233.65C283.35 233.65 283.01 233.729 282.699 233.888C282.389 234.04 282.122 234.269 281.899 234.573C281.677 234.878 281.504 235.25 281.381 235.689C281.258 236.129 281.196 236.636 281.196 237.21V237.579C281.196 238.03 281.258 238.455 281.381 238.854C281.51 239.246 281.694 239.592 281.935 239.891C282.181 240.189 282.477 240.424 282.822 240.594C283.174 240.764 283.572 240.849 284.018 240.849C284.592 240.849 285.078 240.731 285.477 240.497C285.875 240.263 286.224 239.949 286.522 239.557L287.507 240.339C287.302 240.649 287.041 240.945 286.725 241.227C286.408 241.508 286.019 241.736 285.556 241.912C285.099 242.088 284.557 242.176 283.93 242.176ZM295.522 240.154V228.5H297.157V242H295.663L295.522 240.154ZM289.124 237.351V237.166C289.124 236.439 289.212 235.78 289.388 235.188C289.569 234.591 289.824 234.078 290.152 233.65C290.486 233.223 290.882 232.895 291.339 232.666C291.802 232.432 292.317 232.314 292.886 232.314C293.483 232.314 294.005 232.42 294.45 232.631C294.901 232.836 295.282 233.138 295.593 233.536C295.909 233.929 296.158 234.403 296.34 234.96C296.521 235.517 296.647 236.146 296.718 236.85V237.658C296.653 238.355 296.527 238.982 296.34 239.539C296.158 240.096 295.909 240.57 295.593 240.963C295.282 241.355 294.901 241.657 294.45 241.868C293.999 242.073 293.472 242.176 292.868 242.176C292.312 242.176 291.802 242.056 291.339 241.815C290.882 241.575 290.486 241.238 290.152 240.805C289.824 240.371 289.569 239.861 289.388 239.275C289.212 238.684 289.124 238.042 289.124 237.351ZM290.759 237.166V237.351C290.759 237.825 290.806 238.271 290.899 238.687C290.999 239.103 291.151 239.469 291.356 239.785C291.562 240.102 291.822 240.351 292.139 240.532C292.455 240.708 292.833 240.796 293.272 240.796C293.812 240.796 294.254 240.682 294.6 240.453C294.951 240.225 295.232 239.923 295.443 239.548C295.654 239.173 295.818 238.766 295.936 238.326V236.208C295.865 235.886 295.763 235.575 295.628 235.276C295.499 234.972 295.329 234.702 295.118 234.468C294.913 234.228 294.658 234.037 294.354 233.896C294.055 233.756 293.7 233.686 293.29 233.686C292.845 233.686 292.461 233.779 292.139 233.967C291.822 234.148 291.562 234.4 291.356 234.723C291.151 235.039 290.999 235.408 290.899 235.83C290.806 236.246 290.759 236.691 290.759 237.166ZM306.324 242H304.698V231.664C304.698 230.943 304.839 230.334 305.12 229.836C305.401 229.338 305.803 228.96 306.324 228.702C306.846 228.444 307.464 228.315 308.179 228.315C308.601 228.315 309.014 228.368 309.418 228.474C309.822 228.573 310.238 228.699 310.666 228.852L310.394 230.223C310.124 230.117 309.811 230.018 309.453 229.924C309.102 229.824 308.715 229.774 308.293 229.774C307.596 229.774 307.092 229.933 306.781 230.249C306.477 230.56 306.324 231.031 306.324 231.664V242ZM308.267 232.49V233.738H303.195V232.49H308.267ZM311.466 232.49V242H309.84V232.49H311.466ZM315.904 228.5V242H314.27V228.5H315.904ZM322.461 242.176C321.799 242.176 321.198 242.064 320.659 241.842C320.126 241.613 319.666 241.294 319.279 240.884C318.898 240.474 318.605 239.987 318.4 239.425C318.195 238.862 318.093 238.247 318.093 237.579V237.21C318.093 236.437 318.207 235.748 318.436 235.145C318.664 234.535 318.975 234.02 319.367 233.598C319.76 233.176 320.205 232.856 320.703 232.64C321.201 232.423 321.717 232.314 322.25 232.314C322.93 232.314 323.516 232.432 324.008 232.666C324.506 232.9 324.913 233.229 325.229 233.65C325.546 234.066 325.78 234.559 325.933 235.127C326.085 235.689 326.161 236.305 326.161 236.973V237.702H319.06V236.375H324.535V236.252C324.512 235.83 324.424 235.42 324.271 235.021C324.125 234.623 323.891 234.295 323.568 234.037C323.246 233.779 322.807 233.65 322.25 233.65C321.881 233.65 321.541 233.729 321.23 233.888C320.92 234.04 320.653 234.269 320.431 234.573C320.208 234.878 320.035 235.25 319.912 235.689C319.789 236.129 319.728 236.636 319.728 237.21V237.579C319.728 238.03 319.789 238.455 319.912 238.854C320.041 239.246 320.226 239.592 320.466 239.891C320.712 240.189 321.008 240.424 321.354 240.594C321.705 240.764 322.104 240.849 322.549 240.849C323.123 240.849 323.609 240.731 324.008 240.497C324.406 240.263 324.755 239.949 325.054 239.557L326.038 240.339C325.833 240.649 325.572 240.945 325.256 241.227C324.939 241.508 324.55 241.736 324.087 241.912C323.63 242.088 323.088 242.176 322.461 242.176ZM340.733 240.664V242H332.357V240.831L336.55 236.164C337.065 235.59 337.464 235.104 337.745 234.705C338.032 234.301 338.231 233.94 338.343 233.624C338.46 233.302 338.519 232.974 338.519 232.64C338.519 232.218 338.431 231.837 338.255 231.497C338.085 231.151 337.833 230.876 337.499 230.671C337.165 230.466 336.761 230.363 336.286 230.363C335.718 230.363 335.243 230.475 334.862 230.697C334.487 230.914 334.206 231.219 334.019 231.611C333.831 232.004 333.737 232.455 333.737 232.965H332.111C332.111 232.244 332.27 231.585 332.586 230.987C332.902 230.39 333.371 229.915 333.992 229.563C334.613 229.206 335.378 229.027 336.286 229.027C337.095 229.027 337.786 229.171 338.36 229.458C338.935 229.739 339.374 230.138 339.679 230.653C339.989 231.163 340.145 231.761 340.145 232.446C340.145 232.821 340.08 233.202 339.951 233.589C339.828 233.97 339.655 234.351 339.433 234.731C339.216 235.112 338.961 235.487 338.668 235.856C338.381 236.226 338.073 236.589 337.745 236.946L334.317 240.664H340.733Z" fill="black"/>
<path d="M444.535 27.4258V26.0078C444.535 25.5312 444.613 25.0352 444.77 24.5195C444.934 23.9961 445.168 23.4961 445.473 23.0195C445.777 22.5352 446.145 22.1172 446.574 21.7656L447.805 22.6211C447.445 23.1367 447.168 23.668 446.973 24.2148C446.777 24.7539 446.68 25.3398 446.68 25.9727V27.4258H444.535ZM448.227 27.4258V26.0078C448.227 25.5312 448.305 25.0352 448.461 24.5195C448.625 23.9961 448.859 23.4961 449.164 23.0195C449.469 22.5352 449.836 22.1172 450.266 21.7656L451.496 22.6211C451.137 23.1367 450.859 23.668 450.664 24.2148C450.469 24.7539 450.371 25.3398 450.371 25.9727V27.4258H448.227ZM462.863 35.6875C462.863 35.2891 462.801 34.9375 462.676 34.6328C462.559 34.3203 462.348 34.0391 462.043 33.7891C461.746 33.5391 461.332 33.3008 460.801 33.0742C460.277 32.8477 459.613 32.6172 458.809 32.3828C457.965 32.1328 457.203 31.8555 456.523 31.5508C455.844 31.2383 455.262 30.8828 454.777 30.4844C454.293 30.0859 453.922 29.6289 453.664 29.1133C453.406 28.5977 453.277 28.0078 453.277 27.3438C453.277 26.6797 453.414 26.0664 453.688 25.5039C453.961 24.9414 454.352 24.4531 454.859 24.0391C455.375 23.6172 455.988 23.2891 456.699 23.0547C457.41 22.8203 458.203 22.7031 459.078 22.7031C460.359 22.7031 461.445 22.9492 462.336 23.4414C463.234 23.9258 463.918 24.5625 464.387 25.3516C464.855 26.1328 465.09 26.9688 465.09 27.8594H462.84C462.84 27.2188 462.703 26.6523 462.43 26.1602C462.156 25.6602 461.742 25.2695 461.188 24.9883C460.633 24.6992 459.93 24.5547 459.078 24.5547C458.273 24.5547 457.609 24.6758 457.086 24.918C456.562 25.1602 456.172 25.4883 455.914 25.9023C455.664 26.3164 455.539 26.7891 455.539 27.3203C455.539 27.6797 455.613 28.0078 455.762 28.3047C455.918 28.5938 456.156 28.8633 456.477 29.1133C456.805 29.3633 457.219 29.5938 457.719 29.8047C458.227 30.0156 458.832 30.2188 459.535 30.4141C460.504 30.6875 461.34 30.9922 462.043 31.3281C462.746 31.6641 463.324 32.043 463.777 32.4648C464.238 32.8789 464.578 33.3516 464.797 33.8828C465.023 34.4062 465.137 35 465.137 35.6641C465.137 36.3594 464.996 36.9883 464.715 37.5508C464.434 38.1133 464.031 38.5938 463.508 38.9922C462.984 39.3906 462.355 39.6992 461.621 39.918C460.895 40.1289 460.082 40.2344 459.184 40.2344C458.395 40.2344 457.617 40.125 456.852 39.9062C456.094 39.6875 455.402 39.3594 454.777 38.9219C454.16 38.4844 453.664 37.9453 453.289 37.3047C452.922 36.6562 452.738 35.9062 452.738 35.0547H454.988C454.988 35.6406 455.102 36.1445 455.328 36.5664C455.555 36.9805 455.863 37.3242 456.254 37.5977C456.652 37.8711 457.102 38.0742 457.602 38.207C458.109 38.332 458.637 38.3945 459.184 38.3945C459.973 38.3945 460.641 38.2852 461.188 38.0664C461.734 37.8477 462.148 37.5352 462.43 37.1289C462.719 36.7227 462.863 36.2422 462.863 35.6875ZM473 27.3203V28.9844H466.145V27.3203H473ZM468.465 24.2383H470.633V36.8594C470.633 37.2891 470.699 37.6133 470.832 37.832C470.965 38.0508 471.137 38.1953 471.348 38.2656C471.559 38.3359 471.785 38.3711 472.027 38.3711C472.207 38.3711 472.395 38.3555 472.59 38.3242C472.793 38.2852 472.945 38.2539 473.047 38.2305L473.059 40C472.887 40.0547 472.66 40.1055 472.379 40.1523C472.105 40.207 471.773 40.2344 471.383 40.2344C470.852 40.2344 470.363 40.1289 469.918 39.918C469.473 39.707 469.117 39.3555 468.852 38.8633C468.594 38.3633 468.465 37.6914 468.465 36.8477V24.2383ZM483.02 37.832V31.3047C483.02 30.8047 482.918 30.3711 482.715 30.0039C482.52 29.6289 482.223 29.3398 481.824 29.1367C481.426 28.9336 480.934 28.832 480.348 28.832C479.801 28.832 479.32 28.9258 478.906 29.1133C478.5 29.3008 478.18 29.5469 477.945 29.8516C477.719 30.1562 477.605 30.4844 477.605 30.8359H475.438C475.438 30.3828 475.555 29.9336 475.789 29.4883C476.023 29.043 476.359 28.6406 476.797 28.2812C477.242 27.9141 477.773 27.625 478.391 27.4141C479.016 27.1953 479.711 27.0859 480.477 27.0859C481.398 27.0859 482.211 27.2422 482.914 27.5547C483.625 27.8672 484.18 28.3398 484.578 28.9727C484.984 29.5977 485.188 30.3828 485.188 31.3281V37.2344C485.188 37.6562 485.223 38.1055 485.293 38.582C485.371 39.0586 485.484 39.4688 485.633 39.8125V40H483.371C483.262 39.75 483.176 39.418 483.113 39.0039C483.051 38.582 483.02 38.1914 483.02 37.832ZM483.395 32.3125L483.418 33.8359H481.227C480.609 33.8359 480.059 33.8867 479.574 33.9883C479.09 34.082 478.684 34.2266 478.355 34.4219C478.027 34.6172 477.777 34.8633 477.605 35.1602C477.434 35.4492 477.348 35.7891 477.348 36.1797C477.348 36.5781 477.438 36.9414 477.617 37.2695C477.797 37.5977 478.066 37.8594 478.426 38.0547C478.793 38.2422 479.242 38.3359 479.773 38.3359C480.438 38.3359 481.023 38.1953 481.531 37.9141C482.039 37.6328 482.441 37.2891 482.738 36.8828C483.043 36.4766 483.207 36.082 483.23 35.6992L484.156 36.7422C484.102 37.0703 483.953 37.4336 483.711 37.832C483.469 38.2305 483.145 38.6133 482.738 38.9805C482.34 39.3398 481.863 39.6406 481.309 39.8828C480.762 40.1172 480.145 40.2344 479.457 40.2344C478.598 40.2344 477.844 40.0664 477.195 39.7305C476.555 39.3945 476.055 38.9453 475.695 38.3828C475.344 37.8125 475.168 37.1758 475.168 36.4727C475.168 35.793 475.301 35.1953 475.566 34.6797C475.832 34.1562 476.215 33.7227 476.715 33.3789C477.215 33.0273 477.816 32.7617 478.52 32.582C479.223 32.4023 480.008 32.3125 480.875 32.3125H483.395ZM490.766 30.0273V40H488.598V27.3203H490.648L490.766 30.0273ZM490.25 33.1797L489.348 33.1445C489.355 32.2773 489.484 31.4766 489.734 30.7422C489.984 30 490.336 29.3555 490.789 28.8086C491.242 28.2617 491.781 27.8398 492.406 27.543C493.039 27.2383 493.738 27.0859 494.504 27.0859C495.129 27.0859 495.691 27.1719 496.191 27.3438C496.691 27.5078 497.117 27.7734 497.469 28.1406C497.828 28.5078 498.102 28.9844 498.289 29.5703C498.477 30.1484 498.57 30.8555 498.57 31.6914V40H496.391V31.668C496.391 31.0039 496.293 30.4727 496.098 30.0742C495.902 29.668 495.617 29.375 495.242 29.1953C494.867 29.0078 494.406 28.9141 493.859 28.9141C493.32 28.9141 492.828 29.0273 492.383 29.2539C491.945 29.4805 491.566 29.793 491.246 30.1914C490.934 30.5898 490.688 31.0469 490.508 31.5625C490.336 32.0703 490.25 32.6094 490.25 33.1797ZM509.855 37.5391V22H512.035V40H510.043L509.855 37.5391ZM501.324 33.8008V33.5547C501.324 32.5859 501.441 31.707 501.676 30.918C501.918 30.1211 502.258 29.4375 502.695 28.8672C503.141 28.2969 503.668 27.8594 504.277 27.5547C504.895 27.2422 505.582 27.0859 506.34 27.0859C507.137 27.0859 507.832 27.2266 508.426 27.5078C509.027 27.7812 509.535 28.1836 509.949 28.7148C510.371 29.2383 510.703 29.8711 510.945 30.6133C511.188 31.3555 511.355 32.1953 511.449 33.1328V34.2109C511.363 35.1406 511.195 35.9766 510.945 36.7188C510.703 37.4609 510.371 38.0938 509.949 38.6172C509.535 39.1406 509.027 39.543 508.426 39.8242C507.824 40.0977 507.121 40.2344 506.316 40.2344C505.574 40.2344 504.895 40.0742 504.277 39.7539C503.668 39.4336 503.141 38.9844 502.695 38.4062C502.258 37.8281 501.918 37.1484 501.676 36.3672C501.441 35.5781 501.324 34.7227 501.324 33.8008ZM503.504 33.5547V33.8008C503.504 34.4336 503.566 35.0273 503.691 35.582C503.824 36.1367 504.027 36.625 504.301 37.0469C504.574 37.4688 504.922 37.8008 505.344 38.043C505.766 38.2773 506.27 38.3945 506.855 38.3945C507.574 38.3945 508.164 38.2422 508.625 37.9375C509.094 37.6328 509.469 37.2305 509.75 36.7305C510.031 36.2305 510.25 35.6875 510.406 35.1016V32.2773C510.312 31.8477 510.176 31.4336 509.996 31.0352C509.824 30.6289 509.598 30.2695 509.316 29.957C509.043 29.6367 508.703 29.3828 508.297 29.1953C507.898 29.0078 507.426 28.9141 506.879 28.9141C506.285 28.9141 505.773 29.0391 505.344 29.2891C504.922 29.5312 504.574 29.8672 504.301 30.2969C504.027 30.7188 503.824 31.2109 503.691 31.7734C503.566 32.3281 503.504 32.9219 503.504 33.5547ZM522.887 37.832V31.3047C522.887 30.8047 522.785 30.3711 522.582 30.0039C522.387 29.6289 522.09 29.3398 521.691 29.1367C521.293 28.9336 520.801 28.832 520.215 28.832C519.668 28.832 519.188 28.9258 518.773 29.1133C518.367 29.3008 518.047 29.5469 517.812 29.8516C517.586 30.1562 517.473 30.4844 517.473 30.8359H515.305C515.305 30.3828 515.422 29.9336 515.656 29.4883C515.891 29.043 516.227 28.6406 516.664 28.2812C517.109 27.9141 517.641 27.625 518.258 27.4141C518.883 27.1953 519.578 27.0859 520.344 27.0859C521.266 27.0859 522.078 27.2422 522.781 27.5547C523.492 27.8672 524.047 28.3398 524.445 28.9727C524.852 29.5977 525.055 30.3828 525.055 31.3281V37.2344C525.055 37.6562 525.09 38.1055 525.16 38.582C525.238 39.0586 525.352 39.4688 525.5 39.8125V40H523.238C523.129 39.75 523.043 39.418 522.98 39.0039C522.918 38.582 522.887 38.1914 522.887 37.832ZM523.262 32.3125L523.285 33.8359H521.094C520.477 33.8359 519.926 33.8867 519.441 33.9883C518.957 34.082 518.551 34.2266 518.223 34.4219C517.895 34.6172 517.645 34.8633 517.473 35.1602C517.301 35.4492 517.215 35.7891 517.215 36.1797C517.215 36.5781 517.305 36.9414 517.484 37.2695C517.664 37.5977 517.934 37.8594 518.293 38.0547C518.66 38.2422 519.109 38.3359 519.641 38.3359C520.305 38.3359 520.891 38.1953 521.398 37.9141C521.906 37.6328 522.309 37.2891 522.605 36.8828C522.91 36.4766 523.074 36.082 523.098 35.6992L524.023 36.7422C523.969 37.0703 523.82 37.4336 523.578 37.832C523.336 38.2305 523.012 38.6133 522.605 38.9805C522.207 39.3398 521.73 39.6406 521.176 39.8828C520.629 40.1172 520.012 40.2344 519.324 40.2344C518.465 40.2344 517.711 40.0664 517.062 39.7305C516.422 39.3945 515.922 38.9453 515.562 38.3828C515.211 37.8125 515.035 37.1758 515.035 36.4727C515.035 35.793 515.168 35.1953 515.434 34.6797C515.699 34.1562 516.082 33.7227 516.582 33.3789C517.082 33.0273 517.684 32.7617 518.387 32.582C519.09 32.4023 519.875 32.3125 520.742 32.3125H523.262ZM530.82 22V40H528.641V22H530.82ZM533.727 33.8008V33.5312C533.727 32.6172 533.859 31.7695 534.125 30.9883C534.391 30.1992 534.773 29.5156 535.273 28.9375C535.773 28.3516 536.379 27.8984 537.09 27.5781C537.801 27.25 538.598 27.0859 539.48 27.0859C540.371 27.0859 541.172 27.25 541.883 27.5781C542.602 27.8984 543.211 28.3516 543.711 28.9375C544.219 29.5156 544.605 30.1992 544.871 30.9883C545.137 31.7695 545.27 32.6172 545.27 33.5312V33.8008C545.27 34.7148 545.137 35.5625 544.871 36.3438C544.605 37.125 544.219 37.8086 543.711 38.3945C543.211 38.9727 542.605 39.4258 541.895 39.7539C541.191 40.0742 540.395 40.2344 539.504 40.2344C538.613 40.2344 537.812 40.0742 537.102 39.7539C536.391 39.4258 535.781 38.9727 535.273 38.3945C534.773 37.8086 534.391 37.125 534.125 36.3438C533.859 35.5625 533.727 34.7148 533.727 33.8008ZM535.895 33.5312V33.8008C535.895 34.4336 535.969 35.0312 536.117 35.5938C536.266 36.1484 536.488 36.6406 536.785 37.0703C537.09 37.5 537.469 37.8398 537.922 38.0898C538.375 38.332 538.902 38.4531 539.504 38.4531C540.098 38.4531 540.617 38.332 541.062 38.0898C541.516 37.8398 541.891 37.5 542.188 37.0703C542.484 36.6406 542.707 36.1484 542.855 35.5938C543.012 35.0312 543.09 34.4336 543.09 33.8008V33.5312C543.09 32.9062 543.012 32.3164 542.855 31.7617C542.707 31.1992 542.48 30.7031 542.176 30.2734C541.879 29.8359 541.504 29.4922 541.051 29.2422C540.605 28.9922 540.082 28.8672 539.48 28.8672C538.887 28.8672 538.363 28.9922 537.91 29.2422C537.465 29.4922 537.09 29.8359 536.785 30.2734C536.488 30.7031 536.266 31.1992 536.117 31.7617C535.969 32.3164 535.895 32.9062 535.895 33.5312ZM550.156 30.0273V40H547.988V27.3203H550.039L550.156 30.0273ZM549.641 33.1797L548.738 33.1445C548.746 32.2773 548.875 31.4766 549.125 30.7422C549.375 30 549.727 29.3555 550.18 28.8086C550.633 28.2617 551.172 27.8398 551.797 27.543C552.43 27.2383 553.129 27.0859 553.895 27.0859C554.52 27.0859 555.082 27.1719 555.582 27.3438C556.082 27.5078 556.508 27.7734 556.859 28.1406C557.219 28.5078 557.492 28.9844 557.68 29.5703C557.867 30.1484 557.961 30.8555 557.961 31.6914V40H555.781V31.668C555.781 31.0039 555.684 30.4727 555.488 30.0742C555.293 29.668 555.008 29.375 554.633 29.1953C554.258 29.0078 553.797 28.9141 553.25 28.9141C552.711 28.9141 552.219 29.0273 551.773 29.2539C551.336 29.4805 550.957 29.793 550.637 30.1914C550.324 30.5898 550.078 31.0469 549.898 31.5625C549.727 32.0703 549.641 32.6094 549.641 33.1797ZM566.516 40.2344C565.633 40.2344 564.832 40.0859 564.113 39.7891C563.402 39.4844 562.789 39.0586 562.273 38.5117C561.766 37.9648 561.375 37.3164 561.102 36.5664C560.828 35.8164 560.691 34.9961 560.691 34.1055V33.6133C560.691 32.582 560.844 31.6641 561.148 30.8594C561.453 30.0469 561.867 29.3594 562.391 28.7969C562.914 28.2344 563.508 27.8086 564.172 27.5195C564.836 27.2305 565.523 27.0859 566.234 27.0859C567.141 27.0859 567.922 27.2422 568.578 27.5547C569.242 27.8672 569.785 28.3047 570.207 28.8672C570.629 29.4219 570.941 30.0781 571.145 30.8359C571.348 31.5859 571.449 32.4062 571.449 33.2969V34.2695H561.98V32.5H569.281V32.3359C569.25 31.7734 569.133 31.2266 568.93 30.6953C568.734 30.1641 568.422 29.7266 567.992 29.3828C567.562 29.0391 566.977 28.8672 566.234 28.8672C565.742 28.8672 565.289 28.9727 564.875 29.1836C564.461 29.3867 564.105 29.6914 563.809 30.0977C563.512 30.5039 563.281 31 563.117 31.5859C562.953 32.1719 562.871 32.8477 562.871 33.6133V34.1055C562.871 34.707 562.953 35.2734 563.117 35.8047C563.289 36.3281 563.535 36.7891 563.855 37.1875C564.184 37.5859 564.578 37.8984 565.039 38.125C565.508 38.3516 566.039 38.4648 566.633 38.4648C567.398 38.4648 568.047 38.3086 568.578 37.9961C569.109 37.6836 569.574 37.2656 569.973 36.7422L571.285 37.7852C571.012 38.1992 570.664 38.5938 570.242 38.9688C569.82 39.3438 569.301 39.6484 568.684 39.8828C568.074 40.1172 567.352 40.2344 566.516 40.2344ZM576.148 22V23.5C576.148 23.9688 576.066 24.4648 575.902 24.9883C575.746 25.5039 575.516 26.0039 575.211 26.4883C574.906 26.9648 574.539 27.3828 574.109 27.7422L572.867 26.8867C573.234 26.3711 573.512 25.8438 573.699 25.3047C573.895 24.7578 573.992 24.168 573.992 23.5352V22H576.148ZM579.746 22V23.5C579.746 23.9688 579.664 24.4648 579.5 24.9883C579.344 25.5039 579.113 26.0039 578.809 26.4883C578.504 26.9648 578.137 27.3828 577.707 27.7422L576.465 26.8867C576.832 26.3711 577.109 25.8438 577.297 25.3047C577.492 24.7578 577.59 24.168 577.59 23.5352V22H579.746ZM503.609 68H501.441V54.2188C501.441 53.2578 501.629 52.4453 502.004 51.7812C502.379 51.1172 502.914 50.6133 503.609 50.2695C504.305 49.9258 505.129 49.7539 506.082 49.7539C506.645 49.7539 507.195 49.8242 507.734 49.9648C508.273 50.0977 508.828 50.2656 509.398 50.4688L509.035 52.2969C508.676 52.1562 508.258 52.0234 507.781 51.8984C507.312 51.7656 506.797 51.6992 506.234 51.6992C505.305 51.6992 504.633 51.9102 504.219 52.332C503.812 52.7461 503.609 53.375 503.609 54.2188V68ZM506.199 55.3203V56.9844H499.438V55.3203H506.199ZM510.465 55.3203V68H508.297V55.3203H510.465ZM516.383 50V68H514.203V50H516.383ZM525.125 68.2344C524.242 68.2344 523.441 68.0859 522.723 67.7891C522.012 67.4844 521.398 67.0586 520.883 66.5117C520.375 65.9648 519.984 65.3164 519.711 64.5664C519.438 63.8164 519.301 62.9961 519.301 62.1055V61.6133C519.301 60.582 519.453 59.6641 519.758 58.8594C520.062 58.0469 520.477 57.3594 521 56.7969C521.523 56.2344 522.117 55.8086 522.781 55.5195C523.445 55.2305 524.133 55.0859 524.844 55.0859C525.75 55.0859 526.531 55.2422 527.188 55.5547C527.852 55.8672 528.395 56.3047 528.816 56.8672C529.238 57.4219 529.551 58.0781 529.754 58.8359C529.957 59.5859 530.059 60.4062 530.059 61.2969V62.2695H520.59V60.5H527.891V60.3359C527.859 59.7734 527.742 59.2266 527.539 58.6953C527.344 58.1641 527.031 57.7266 526.602 57.3828C526.172 57.0391 525.586 56.8672 524.844 56.8672C524.352 56.8672 523.898 56.9727 523.484 57.1836C523.07 57.3867 522.715 57.6914 522.418 58.0977C522.121 58.5039 521.891 59 521.727 59.5859C521.562 60.1719 521.48 60.8477 521.48 61.6133V62.1055C521.48 62.707 521.562 63.2734 521.727 63.8047C521.898 64.3281 522.145 64.7891 522.465 65.1875C522.793 65.5859 523.188 65.8984 523.648 66.125C524.117 66.3516 524.648 66.4648 525.242 66.4648C526.008 66.4648 526.656 66.3086 527.188 65.9961C527.719 65.6836 528.184 65.2656 528.582 64.7422L529.895 65.7852C529.621 66.1992 529.273 66.5938 528.852 66.9688C528.43 67.3438 527.91 67.6484 527.293 67.8828C526.684 68.1172 525.961 68.2344 525.125 68.2344Z" fill="black"/>
<path d="M147.64 146.367C147.291 147.118 147.616 148.01 148.367 148.36L160.607 154.056C161.358 154.405 162.25 154.08 162.6 153.329C162.949 152.577 162.624 151.685 161.873 151.336L150.993 146.273L156.056 135.393C156.405 134.642 156.08 133.75 155.329 133.4C154.577 133.051 153.685 133.376 153.336 134.127L147.64 146.367ZM222.486 118.591L148.486 145.591L149.514 148.409L223.514 121.409L222.486 118.591Z" fill="black"/>
<path d="M148.61 201.552C147.81 201.767 147.336 202.591 147.552 203.39L151.065 216.425C151.281 217.225 152.104 217.699 152.904 217.483C153.704 217.267 154.178 216.444 153.962 215.644L150.839 204.058L162.425 200.935C163.225 200.719 163.699 199.896 163.483 199.096C163.267 198.296 162.444 197.822 161.644 198.038L148.61 201.552ZM222.748 243.7L149.748 201.7L148.252 204.3L221.252 246.3L222.748 243.7Z" fill="black"/>
<path d="M438.499 48.5656C438.535 47.738 437.893 47.0377 437.066 47.0014L423.579 46.4108C422.751 46.3745 422.051 47.0161 422.014 47.8437C421.978 48.6713 422.62 49.3716 423.447 49.4079L435.436 49.9329L434.911 61.9214C434.875 62.7491 435.516 63.4494 436.344 63.4856C437.171 63.5219 437.872 62.8803 437.908 62.0527L438.499 48.5656ZM366.513 115.106L438.013 49.6061L435.987 47.3939L364.487 112.894L366.513 115.106Z" fill="black"/>
</svg>