<svg id="Capa_1" enable-background="new 0 0 512 512" height="512" viewBox="0 0 512 512" width="512" xmlns="http://www.w3.org/2000/svg"><path d="m256 344.275c-35.836 0-71.522-5.177-100.483-14.577-33.226-10.784-50.073-24.441-50.073-40.59v-125.514c0-8.284 6.716-15 15-15h271.111c8.284 0 15 6.716 15 15v125.514c0 16.149-16.847 29.806-50.073 40.59-28.961 9.4-64.646 14.577-100.482 14.577z" fill="#1a82c7"/><path d="m391.556 148.594h-134.556v195.672c35.499-.095 70.791-5.255 99.483-14.568 33.226-10.784 50.073-24.441 50.073-40.59v-125.514c0-8.284-6.716-15-15-15z" fill="#125994"/><path d="m460.973 468.844c-8.284 0-15-6.716-15-15v-294.847c0-8.284 6.716-15 15-15s15 6.716 15 15v294.847c0 8.284-6.716 15-15 15z" fill="#ffd236"/><circle cx="460.973" cy="355.383" fill="#ff9300" r="30.125"/><path d="m256 243.864c-1.7 0-3.399-.289-5.024-.867l-241-85.677c-5.987-2.128-9.983-7.797-9.976-14.151.008-6.354 4.018-12.013 10.009-14.127l241-85.031c3.229-1.14 6.752-1.14 9.981 0l241 85.031c5.992 2.114 10.001 7.774 10.009 14.127.008 6.354-3.989 12.023-9.976 14.151l-241 85.677c-1.624.578-3.323.867-5.023.867z" fill="#53b7f5"/><path d="m501.991 129.042-241-85.031c-1.296-.457-2.639-.722-3.991-.813v200.624c1.364-.091 2.718-.36 4.024-.824l241-85.677c5.987-2.128 9.983-7.797 9.976-14.151-.008-6.354-4.018-12.014-10.009-14.128z" fill="#2698d1"/><path d="m512 143.169c-.008-6.354-4.018-12.013-10.009-14.127l-5.01-1.768-239.981 85.315-243.207-84.882-3.784 1.335c-5.991 2.114-10.001 7.774-10.009 14.127-.008 6.354 3.989 12.023 9.976 14.151l241 85.677c2.387.867 4.601.867 5.024.867 1.7 0 3.399-.289 5.024-.867l241.005-85.679c5.985-2.129 9.979-7.797 9.971-14.149z" fill="#ffd236"/><path d="m501.991 129.042-5.01-1.768-239.981 85.315v31.232c1.364-.091 2.718-.36 4.024-.824l241.005-85.679c5.984-2.129 9.978-7.797 9.97-14.149-.007-6.353-4.017-12.013-10.008-14.127z" fill="#ff9300"/></svg>