<?xml version="1.0" encoding="iso-8859-1"?>
<!-- Generator: Adobe Illustrator 19.0.0, SVG Export Plug-In . SVG Version: 6.00 Build 0)  -->
<svg version="1.1" id="Capa_1" xmlns="http://www.w3.org/2000/svg" xmlns:xlink="http://www.w3.org/1999/xlink" x="0px" y="0px"
	 viewBox="0 0 494.02 494.02" style="enable-background:new 0 0 494.02 494.02;" xml:space="preserve">
<path style="fill:#FDC75B;" d="M484.02,426.794L484.02,426.794c0,31.4-25.4,56.8-56.8,56.8h-242.3c-31.4,0-56.8-25.4-56.8-56.8v-0.1
	c0-31.3,25.4-56.8,56.8-56.8h56.8h128.7h56.8C458.62,370.094,484.02,395.494,484.02,426.794z M447.82,425.994
	c0-18.5-15-33.5-33.5-33.5s-33.5,15-33.5,33.5s15,33.5,33.5,33.5C432.92,459.494,447.82,444.494,447.82,425.994z M337.02,425.994
	c0-18.5-15-33.5-33.5-33.5s-33.5,15-33.5,33.5s15,33.5,33.5,33.5S337.02,444.494,337.02,425.994z M226.22,425.994
	c0-18.5-14.9-33.5-33.5-33.5s-33.5,15-33.5,33.5s15,33.5,33.5,33.5S226.22,444.494,226.22,425.994z"/>
<g>
	<polygon style="fill:#ED664C;" points="475.72,244.694 475.72,332.094 370.42,332.094 241.72,332.094 191.62,332.094 
		191.62,284.794 200.32,283.594 301.92,269.294 381.92,257.994 	"/>
	<path style="fill:#ED664C;" d="M414.42,392.494c18.5,0,33.5,15,33.5,33.5s-15,33.5-33.5,33.5s-33.5-15-33.5-33.5
		S395.92,392.494,414.42,392.494z"/>
	<polygon style="fill:#ED664C;" points="304.92,157.794 380.92,157.794 380.92,250.594 381.92,257.994 301.92,269.294 
		300.72,260.594 300.72,157.794 	"/>
	<path style="fill:#ED664C;" d="M303.62,392.494c18.5,0,33.5,15,33.5,33.5s-15,33.5-33.5,33.5s-33.5-15-33.5-33.5
		S285.12,392.494,303.62,392.494z"/>
	<path style="fill:#ED664C;" d="M168.52,10.694l136.4,147.1h-4.2h-11.3c-20.5,0-39.5,6.8-54.6,18.4l-46.6-74.5l-40.2-64.2l-4.7-7.5
		L168.52,10.694z"/>
</g>
<path style="fill:#FDC75B;" d="M300.72,260.594l1.2,8.7l-101.7,14.3l-1.1-8v-27.6c0-29.3,14-55.4,35.6-71.8
	c15.2-11.6,34.1-18.4,54.6-18.4h11.3v102.8H300.72z"/>
<g>
	<path style="fill:#ED664C;" d="M192.82,392.494c18.5,0,33.5,15,33.5,33.5s-14.9,33.5-33.5,33.5s-33.5-15-33.5-33.5
		C159.22,407.494,174.22,392.494,192.82,392.494z"/>
	<path style="fill:#ED664C;" d="M148.02,37.494l40.1,64.2l-6.8,4.2l-58.7,158v1h-23.5c-2.1,0-4.3,0.2-6.3,0.7l-1.7-5.8l52.8-219.8
		L148.02,37.494z"/>
	<path style="fill:#ED664C;" d="M125.62,264.994v54.7c0,14.3-11.6,25.9-25.9,25.9h-89.7l66.5-70.7c4.4-4.7,10.1-7.8,16.3-9.1
		c2-0.5,4.2-0.7,6.3-0.7h23.5h3V264.994z"/>
</g>
<path d="M427.22,360.194h-47.2v-18h95.7c5.5,0,10.3-4.6,10.3-10.1v-87.3c0-2.9-1.4-5.6-3.6-7.5s-5.1-2.8-8-2.4l-83.4,11.7v-88.7
	c0-5.5-4.6-9.6-10.1-9.6h-71.6l-133.5-144.2c-3.5-3.8-9.3-4.4-13.4-1.2l-25.2,19.2c-4.1,3.1-5.1,8.9-2.4,13.2l0.2,0.2
	c-0.3,0.7-0.6,1.4-0.8,2.1l-52.8,219.9c-0.1,0.6-0.2,1.1-0.2,1.7c-4.4,2.2-8.5,5.1-12,8.8l-66.5,70.7c-2.7,2.9-3.5,7-1.9,10.6
	c1.6,3.7,5.2,5.9,9.2,5.9h89.8c19.8,0,36.3-15.7,36.3-35.5v-54.7c0-1.6-0.6-3.1-1.3-4.5l52.5-141.6l34.4,55.2
	c-20.8,18.9-32.6,45.4-32.6,73.9v27.2c-4,1.1-7,5.1-7,9.7v47.2c0,5.5,4.1,10.1,9.6,10.1h40.3v18h-47.1c-36.9,0-66.8,29.7-66.8,66.5
	s30,66.5,66.8,66.5h242.3c36.9,0,66.8-29.7,66.8-66.5S464.12,360.194,427.22,360.194z M311.02,170.494c1-0.4,2.6-1,3.8-2.1
	c0.1-0.1,0.1-0.2,0.2-0.2h56v81.2l-60,8.5V170.494z M116.02,319.694c0,8.7-7.5,15.5-16.3,15.5h-66.6l50.6-53.7
	c3-3.2,6.8-5.2,11.1-6.1c0.1,0,0.1,0.1,0.2,0.1c1.2-0.3,2.6-0.3,4.1-0.3h16.9V319.694z M172.02,102.594l-56.8,152.6h-12.7
	l47.1-196.1l24.8,39.7C173.42,99.794,172.52,101.094,172.02,102.594z M196.62,96.394l-40-64l10.7-8.2l114.9,123.9
	c-15.9,1.1-31,5.9-44.5,14L196.62,96.394z M209.02,248.094c0-25.3,11.6-48.4,31.8-63.7c14-10.7,30.8-16.2,48.6-16.2h1.6v92.4
	c0,0.1-0.2,0.1-0.2,0.2l-81.8,11.5V248.094z M202.02,322.194v-28.7l101.5-14.3l80.1-11.3l82.4-11.7v66H202.02z M360.02,342.194v18
	h-108v-18H360.02z M427.22,473.194h-242.3c-25.8,0-46.8-20.7-46.8-46.5s21-46.5,46.8-46.5h242.3c25.8,0,46.8,20.7,46.8,46.5
	S453.02,473.194,427.22,473.194z"/>
<path d="M303.62,382.494c-24,0-43.5,19.5-43.5,43.5s19.5,43.5,43.5,43.5s43.5-19.5,43.5-43.5
	C347.02,401.994,327.52,382.494,303.62,382.494z M303.62,449.494c-13,0-23.5-10.5-23.5-23.5s10.5-23.5,23.5-23.5
	c12.9,0,23.5,10.5,23.5,23.5C327.02,438.994,316.52,449.494,303.62,449.494z"/>
<path d="M414.42,382.494c-24,0-43.5,19.5-43.5,43.5s19.5,43.5,43.5,43.5s43.5-19.5,43.5-43.5
	C457.82,401.994,438.42,382.494,414.42,382.494z M414.42,449.494c-13,0-23.5-10.5-23.5-23.5s10.5-23.5,23.5-23.5
	c12.9,0,23.5,10.5,23.5,23.5C437.82,438.994,427.32,449.494,414.42,449.494z"/>
<path d="M192.82,382.494c-24,0-43.5,19.5-43.5,43.5s19.5,43.5,43.5,43.5s43.5-19.5,43.5-43.5
	C236.22,401.994,216.72,382.494,192.82,382.494z M192.82,449.494c-13,0-23.5-10.5-23.5-23.5s10.5-23.5,23.5-23.5
	c12.9,0,23.5,10.5,23.5,23.5C216.22,438.994,205.72,449.494,192.82,449.494z"/>
<g>
</g>
<g>
</g>
<g>
</g>
<g>
</g>
<g>
</g>
<g>
</g>
<g>
</g>
<g>
</g>
<g>
</g>
<g>
</g>
<g>
</g>
<g>
</g>
<g>
</g>
<g>
</g>
<g>
</g>
</svg>
